# xmcd
#
# Track frame offsets:
# 150
# 28860
# 48772
# 74905
# 92114
# 123471
# 142401
# 162703
#
# Disc length: 2419 seconds
#
#
# Revision: 0
# Processed by: cddbd v1.5.2PL0 Copyright (c) Steve Scherf et al.
# Submitted via: FreeRIP 2.945 
#
DISCID=80097108
DTITLE=Roger - The Saga Continues
DYEAR=1900
DGENRE=Funk
TTITLE0=In The Mix
TTITLE1=Play Your Guitar, Brother Roger
TTITLE2=The Break Song
TTITLE3=I Keep Trying
TTITLE4=Midnight Hour
TTITLE5=Bucket Of Blood
TTITLE6=T C Song
TTITLE7=Girl, Cut It Out
EXTD=
EXTT0=
EXTT1=
EXTT2=
EXTT3=
EXTT4=
EXTT5=
EXTT6=
EXTT7=
PLAYORDER=
